#N canvas 0 22 1280 733 10;
#X obj 872 376 bng 15 250 50 0 empty empty empty 17 7 0 10 -262144
-1 -1;
#X obj 872 266 tgl 30 0 empty empty empty 17 7 0 10 -262144 -1 -1 1
1;
#X obj 872 298 metro 50;
#X msg 928 298 info;
#X obj 978 391 leapmotion;
#X obj 1006 413 route hand tool;
#N canvas 323 22 793 547 flags 0;
#X obj 109 135 tgl 15 0 empty to_general general 17 7 0 10 -262144
-1 -1 1 1;
#X obj 109 177 tgl 15 0 empty to_palm_position palm_position 17 7 0
10 -262144 -1 -1 1 1;
#X obj 110 312 tgl 15 0 empty to_fingers_position position 17 7 0 10
-262144 -1 -1 1 1;
#X obj 219 164 tgl 15 0 empty to_tools_position position 17 7 0 10
-262144 -1 -1 1 1;
#X obj 110 344 tgl 15 0 empty to_fingers_size size 17 7 0 10 -262144
-1 -1 1 1;
#X obj 219 196 tgl 15 0 empty to_tools_size size 17 7 0 10 -262144
-1 -1 1 1;
#X obj 219 180 tgl 15 0 empty to_tools_velocity velocity 17 7 0 10
-262144 -1 -1 1 1;
#X obj 110 328 tgl 15 0 empty to_fingers_velocity velocity 17 7 0 10
-262144 -1 -1 1 1;
#X obj 109 162 tgl 15 0 empty to_direction direction 17 7 0 10 -262144
-1 -1 1 1;
#X obj 109 220 tgl 15 0 empty to_sphere_radius sphere_radius 17 7 0
10 -262144 -1 -1 1 1;
#X obj 109 235 tgl 15 0 empty to_sphere_center sphere_center 17 7 0
10 -262144 -1 -1 1 1;
#X obj 109 250 tgl 15 0 empty to_finger_count finger_count 17 7 0 10
-262144 -1 -1 1 1;
#X obj 109 265 tgl 15 0 empty to_tool_count tool_count 17 7 0 10 -262144
-1 -1 1 1;
#X obj 109 191 tgl 15 0 empty to_palm_velocity palm_velocity 17 7 0
10 -262144 -1 -1 1 1;
#X obj 109 206 tgl 15 0 empty to_palm_normal palm_normal 17 7 0 10
-262144 -1 -1 1 1;
#X obj -49 463 outlet;
#X msg -49 133 general \$1;
#X msg -50 177 hands_direction \$1;
#X msg -48 236 hands_sphere_radius \$1;
#X msg -48 251 hands_sphere_center \$1;
#X msg -48 266 hands_finger_count \$1;
#X msg -48 280 hands_tool_count \$1;
#X msg -50 192 hands_palm_position \$1;
#X msg -49 206 hands_palm_velocity \$1;
#X msg -48 220 hands_palm_normal \$1;
#X msg -49 359 fingers_size \$1;
#X obj 359 427 list prepend gestures;
#X obj 359 450 list trim;
#X msg 356 210 tools_size \$1;
#X msg -49 327 fingers_position \$1;
#X msg -49 345 fingers_velocity \$1;
#X msg 356 179 tools_position \$1;
#X msg 356 194 tools_velocity \$1;
#X msg 359 312 TYPE_CIRCLE \$1;
#X msg 359 343 TYPE_KEY_TAP \$1;
#X msg 359 358 TYPE_SCREEN_TAP \$1;
#X msg 359 328 TYPE_SWIPE \$1;
#X obj 220 296 tgl 15 0 empty to_gestures_circle circle 17 7 0 10 -262144
-1 -1 1 1;
#X obj 220 326 tgl 15 0 empty to_gestures_key_tap key_tap 17 7 0 10
-262144 -1 -1 1 1;
#X obj 220 341 tgl 15 0 empty to_gestures_screen_tap screen_tap 17
7 0 10 -262144 -1 -1 1 1;
#X obj 220 311 tgl 15 0 empty to_gestures_swipe swipe 17 7 0 10 -262144
-1 -1 1 1;
#X obj 110 299 tgl 15 0 empty to_fingers_direction direction 17 7 0
10 -262144 -1 -1 1 1;
#X msg -49 310 fingers_direction \$1;
#X text 108 147 hands;
#X text 108 279 fingers;
#X text 218 277 gestures;
#X text 218 131 tools;
#X obj 219 148 tgl 15 0 empty to_tools_direction direction 17 7 0 10
-262144 -1 -1 1 1;
#X msg 356 163 tools_direction \$1;
#X obj 218 110 tgl 15 0 empty empty all_on/off 17 7 0 10 -258113 -1
-1 1 1;
#X msg 544 128 \; to_general \$1 \; to_direction \$1 \; to_palm_position
\$1 \; to_palm_velocity \$1 \; to_palm_normal \$1 \; to_sphere_radius
\$1 \; to_sphere_center \$1 \; to_finger_count \$1 \; to_tool_count
\$1 \; to_fingers_direction \$1 \; to_fingers_position \$1 \; to_fingers_velocity
\$1 \; to_fingers_size \$1 \; to_tools_direction \$1 \; to_tools_position
\$1 \; to_tools_velocity \$1 \; to_tools_size \$1 \; to_gestures_circle
\$1 \; to_gestures_swipe \$1 \; to_gestures_key_tap \$1 \; to_gestures_screen_tap
\$1 \;;
#X connect 0 0 16 0;
#X connect 1 0 22 0;
#X connect 2 0 29 0;
#X connect 3 0 31 0;
#X connect 4 0 25 0;
#X connect 5 0 28 0;
#X connect 6 0 32 0;
#X connect 7 0 30 0;
#X connect 8 0 17 0;
#X connect 9 0 18 0;
#X connect 10 0 19 0;
#X connect 11 0 20 0;
#X connect 12 0 21 0;
#X connect 13 0 23 0;
#X connect 14 0 24 0;
#X connect 16 0 15 0;
#X connect 17 0 15 0;
#X connect 18 0 15 0;
#X connect 19 0 15 0;
#X connect 20 0 15 0;
#X connect 21 0 15 0;
#X connect 22 0 15 0;
#X connect 23 0 15 0;
#X connect 24 0 15 0;
#X connect 25 0 15 0;
#X connect 26 0 27 0;
#X connect 27 0 15 0;
#X connect 28 0 15 0;
#X connect 29 0 15 0;
#X connect 30 0 15 0;
#X connect 31 0 15 0;
#X connect 32 0 15 0;
#X connect 33 0 26 0;
#X connect 34 0 26 0;
#X connect 35 0 26 0;
#X connect 36 0 26 0;
#X connect 37 0 33 0;
#X connect 38 0 34 0;
#X connect 39 0 35 0;
#X connect 40 0 36 0;
#X connect 41 0 42 0;
#X connect 42 0 15 0;
#X connect 47 0 48 0;
#X connect 48 0 15 0;
#X connect 49 0 50 0;
#X coords 0 -1 1 1 250 270 1 100 100;
#X restore 978 115 pd flags;
#N canvas 415 24 450 300 general 0;
#X obj 169 75 unpack 0 0 0 0 0 0;
#X floatatom 169 122 10 0 0 0 frameID - -;
#X floatatom 169 142 10 0 0 0 timestamp - -;
#X floatatom 169 162 5 0 0 0 hands - -;
#X floatatom 169 182 5 0 0 0 fingers - -;
#X floatatom 169 202 5 0 0 0 tools - -;
#X floatatom 169 222 5 0 0 0 gestures - -;
#X obj 169 49 r general;
#X connect 0 0 1 0;
#X connect 0 1 2 0;
#X connect 0 2 3 0;
#X connect 0 3 4 0;
#X connect 0 4 5 0;
#X connect 0 5 6 0;
#X connect 7 0 0 0;
#X coords 0 -1 1 1 150 140 1 100 100;
#X restore 581 283 pd general;
#X obj 904 408 s general;
#X obj 347 136 vsl 110 100 0 127 0 0 empty empty empty 0 -9 0 10 -1
-262144 -258113 0 1;
#X obj 350 241 hsl 105 105 0 127 0 0 empty empty empty -2 -8 0 10 -1
-262144 -1 0 1;
#X obj 459 243 vsl 110 100 0 127 0 0 empty empty empty 0 -9 0 10 -1
-262144 -258113 9900 1;
#X obj 171 136 vsl 110 100 0 127 0 0 empty empty empty 0 -9 0 10 -1
-262144 -258113 2642 1;
#X obj 174 241 hsl 105 105 0 127 0 0 empty empty empty -2 -8 0 10 -1
-262144 -1 4236 1;
#X obj 59 243 vsl 110 100 0 127 0 0 empty empty empty 0 -9 0 10 -1
-262144 -258113 0 1;
#N canvas 1 400 1279 374 router 0;
#X obj -74 342 unpack 0 0 0;
#X floatatom -74 359 5 0 0 0 x - -;
#X floatatom -26 359 5 0 0 0 y - -;
#X floatatom 23 359 5 0 0 0 z - -;
#X obj -35 186 unpack 0 0 0;
#X floatatom 222 203 5 0 0 0 x - -;
#X floatatom 269 203 5 0 0 0 y - -;
#X floatatom 315 203 5 0 0 0 z - -;
#X floatatom 52 130 5 0 0 0 sphere_center - -;
#X floatatom 359 130 5 0 0 0 fingers - -;
#X floatatom 439 130 5 0 0 0 tools - -;
#X floatatom 176 130 5 0 0 0 sphere_radius - -;
#X obj -74 100 route direction palm_position palm_velocity palm_normal
sphere_radius sphere_center finger_count tool_count fingers;
#X obj 4 283 unpack 0 0 0;
#X floatatom 4 300 5 0 0 0 x - -;
#X floatatom 51 300 5 0 0 0 y - -;
#X floatatom 101 300 5 0 0 0 z - -;
#X obj 43 229 unpack 0 0 0;
#X floatatom 43 246 5 0 0 0 x - -;
#X floatatom 91 246 5 0 0 0 y - -;
#X floatatom 140 246 5 0 0 0 z - -;
#X text -66 323 direction;
#X text 14 264 palm velocity;
#X text 50 210 palm normal;
#X text 240 181 palm position;
#X obj -14 79 route 1;
#X obj -74 81 route 0;
#X obj -74 6 inlet hand;
#X obj 222 356 s r_x;
#X obj 269 356 s r_y;
#X obj 315 356 s r_z;
#X obj 176 356 s r_r;
#X obj 359 356 s r_f;
#X text 60 274;
#X obj 315 219 - 127;
#X obj 315 238 * -1;
#X floatatom 315 257 5 0 0 0 - - -;
#X obj 269 219 - 127;
#X floatatom 269 257 5 0 0 0 - - -;
#X obj 269 238 / 2;
#X obj 486 338 unpack 0 0 0;
#X floatatom 486 355 5 0 0 0 x - -;
#X floatatom 534 355 5 0 0 0 y - -;
#X floatatom 583 355 5 0 0 0 z - -;
#X obj 525 182 unpack 0 0 0;
#X floatatom 802 199 5 0 0 0 x - -;
#X floatatom 849 199 5 0 0 0 y - -;
#X floatatom 895 199 5 0 0 0 z - -;
#X floatatom 623 126 5 0 0 0 sphere_center - -;
#X floatatom 939 126 5 0 0 0 fingers - -;
#X floatatom 1019 126 5 0 0 0 tools - -;
#X floatatom 756 126 5 0 0 0 sphere_radius - -;
#X obj 486 96 route direction palm_position palm_velocity palm_normal
sphere_radius sphere_center finger_count tool_count fingers;
#X obj 564 279 unpack 0 0 0;
#X floatatom 564 296 5 0 0 0 x - -;
#X floatatom 611 296 5 0 0 0 y - -;
#X floatatom 661 296 5 0 0 0 z - -;
#X obj 603 225 unpack 0 0 0;
#X floatatom 603 242 5 0 0 0 x - -;
#X floatatom 651 242 5 0 0 0 y - -;
#X floatatom 700 242 5 0 0 0 z - -;
#X text 494 319 direction;
#X text 574 260 palm velocity;
#X text 610 206 palm normal;
#X text 820 177 palm position;
#X text 620 270 comment;
#X obj 895 215 - 127;
#X obj 895 234 * -1;
#X floatatom 895 253 5 0 0 0 - - -;
#X obj 849 215 - 127;
#X floatatom 849 253 5 0 0 0 - - -;
#X obj 849 234 / 2;
#X obj 756 352 s l_r;
#X obj 802 352 s l_x;
#X obj 849 352 s l_y;
#X obj 895 352 s l_z;
#X obj 939 352 s l_f;
#X connect 0 0 1 0;
#X connect 0 1 2 0;
#X connect 0 2 3 0;
#X connect 4 0 5 0;
#X connect 4 1 6 0;
#X connect 4 2 7 0;
#X connect 5 0 28 0;
#X connect 6 0 37 0;
#X connect 7 0 34 0;
#X connect 9 0 32 0;
#X connect 11 0 31 0;
#X connect 12 0 0 0;
#X connect 12 1 4 0;
#X connect 12 2 13 0;
#X connect 12 3 17 0;
#X connect 12 4 11 0;
#X connect 12 5 8 0;
#X connect 12 6 9 0;
#X connect 12 7 10 0;
#X connect 13 0 14 0;
#X connect 13 1 15 0;
#X connect 13 2 16 0;
#X connect 17 0 18 0;
#X connect 17 1 19 0;
#X connect 17 2 20 0;
#X connect 25 0 52 0;
#X connect 26 0 12 0;
#X connect 27 0 25 0;
#X connect 27 0 26 0;
#X connect 34 0 35 0;
#X connect 35 0 36 0;
#X connect 36 0 30 0;
#X connect 37 0 39 0;
#X connect 38 0 29 0;
#X connect 39 0 38 0;
#X connect 40 0 41 0;
#X connect 40 1 42 0;
#X connect 40 2 43 0;
#X connect 44 0 45 0;
#X connect 44 1 46 0;
#X connect 44 2 47 0;
#X connect 45 0 73 0;
#X connect 46 0 69 0;
#X connect 47 0 66 0;
#X connect 49 0 76 0;
#X connect 51 0 72 0;
#X connect 52 0 40 0;
#X connect 52 1 44 0;
#X connect 52 2 53 0;
#X connect 52 3 57 0;
#X connect 52 4 51 0;
#X connect 52 5 48 0;
#X connect 52 6 49 0;
#X connect 52 7 50 0;
#X connect 53 0 54 0;
#X connect 53 1 55 0;
#X connect 53 2 56 0;
#X connect 57 0 58 0;
#X connect 57 1 59 0;
#X connect 57 2 60 0;
#X connect 66 0 67 0;
#X connect 67 0 68 0;
#X connect 68 0 75 0;
#X connect 69 0 71 0;
#X connect 70 0 74 0;
#X connect 71 0 70 0;
#X restore 1006 435 pd router;
#X obj 499 224 r r_x;
#X obj 535 224 r r_y;
#X obj 347 117 r r_z;
#X obj 247 117 r l_z;
#X obj 95 224 r l_x;
#X obj 59 224 r l_y;
#X obj 131 136 vsl 38 100 0 127 0 0 empty empty empty 0 -9 0 10 -1
-262144 -258113 3430 1;
#X obj 131 117 r l_r;
#X obj 459 136 vsl 38 100 0 127 0 0 empty empty empty 0 -9 0 10 -1
-262144 -258113 7031 1;
#X obj 459 117 r r_r;
#X obj 499 136 vsl 70 83 0 127 0 0 empty empty empty 0 -9 0 10 -1 -262144
-258113 65 1;
#X obj 535 117 r r_f;
#X obj 59 117 r l_f;
#X obj 59 136 vsl 70 83 0 127 0 0 empty empty empty 0 -9 0 10 -1 -262144
-258113 0 1;
#X text 227 101 LEFT HAND;
#X text 345 101 RIGHT HAND;
#X obj 347 348 r r_x;
#X obj 383 348 r r_y;
#X obj 419 348 r r_z;
#X obj 247 348 r l_z;
#X obj 175 348 r l_x;
#X obj 211 348 r l_y;
#X obj 95 348 r l_r;
#X obj 499 348 r r_r;
#X obj 535 348 r r_f;
#X obj 59 348 r l_f;
#X floatatom 59 367 5 0 0 0 - - -;
#X floatatom 95 367 5 0 0 0 - - -;
#X floatatom 175 367 5 0 0 0 - - -;
#X floatatom 211 367 5 0 0 0 - - -;
#X floatatom 247 367 5 0 0 0 - - -;
#X floatatom 347 367 5 0 0 0 - - -;
#X floatatom 383 367 5 0 0 0 - - -;
#X floatatom 419 367 5 0 0 0 - - -;
#X floatatom 499 367 5 0 0 0 - - -;
#X floatatom 535 367 5 0 0 0 - - -;
#X obj 59 385 vsl 32 20 0 127 0 0 empty empty empty 0 -9 0 10 -1 -258113
-1 0 1;
#X obj 95 385 vsl 32 20 0 127 0 0 empty empty empty 0 -9 0 10 -1 -258113
-1 658 1;
#X obj 175 385 vsl 32 20 0 127 0 0 empty empty empty 0 -9 0 10 -262144
-1 -1 774 1;
#X obj 211 385 vsl 32 20 0 127 0 0 empty empty empty 0 -9 0 10 -262144
-1 -1 0 1;
#X obj 247 385 vsl 32 20 0 127 0 0 empty empty empty 0 -9 0 10 -262144
-1 -1 507 1;
#X obj 499 385 vsl 32 20 0 127 0 0 empty empty empty 0 -9 0 10 -1 -258113
-1 1349 1;
#X obj 535 385 vsl 32 20 0 127 0 0 empty empty empty 0 -9 0 10 -1 -258113
-1 15 1;
#X obj 347 385 vsl 32 20 0 127 0 0 empty empty empty 0 -9 0 10 -262144
-1 -1 0 1;
#X obj 383 385 vsl 32 20 0 127 0 0 empty empty empty 0 -9 0 10 -262144
-1 -1 1900 1;
#X obj 419 385 vsl 32 20 0 127 0 0 empty empty empty 0 -9 0 10 -262144
-1 -1 0 1;
#X msg 59 410 10;
#X msg 95 410 11;
#X msg 175 410 12;
#X msg 211 410 13;
#X msg 247 410 14;
#X msg 347 410 15;
#X msg 383 410 16;
#X msg 419 410 17;
#X msg 499 410 18;
#X msg 535 410 19;
#X obj 133 443 ctlout 1 1;
#X floatatom 132 408 5 0 0 0 - - -;
#X floatatom 161 427 5 0 0 0 - - -;
#X obj 613 134 bng 30 250 50 0 empty empty empty 17 7 0 10 -1 -258113
-1;
#X text 613 118 STOP;
#X obj 283 238 vsl 30 105 0 127 0 0 empty empty empty 0 -9 0 10 -1
-258113 -258113 0 1;
#X obj 315 238 vsl 30 105 0 127 0 0 empty empty empty 0 -9 0 10 -1
-258113 -258113 0 1;
#X text 287 218 CH1;
#X text 319 218 CH2;
#X obj 460 443 ctlout 1 1;
#X floatatom 459 408 5 0 0 0 - - -;
#X floatatom 488 427 5 0 0 0 - - -;
#X obj 581 134 bng 30 250 50 0 empty empty empty 17 7 0 10 -1 -258113
-1;
#X text 581 118 PLAY;
#X obj 805 266 bng 30 250 50 0 empty empty empty 17 7 0 10 -1 -191407
-1;
#X floatatom 581 228 5 0 0 0 - - -;
#X text 618 228 TOP;
#X floatatom 646 228 5 0 0 0 - - -;
#X text 683 228 LOCA;
#X floatatom 725 228 5 0 0 0 - - -;
#X text 762 228 BAR;
#X floatatom 646 267 5 0 0 0 - - -;
#X floatatom 581 267 5 0 0 0 - - -;
#X obj 872 164 s stop;
#X obj 914 164 s play;
#X obj 805 319 s bpm;
#X obj 581 209 r barTop;
#X obj 646 209 r barLocal;
#X obj 646 248 r timeSum;
#X obj 725 209 r barCount;
#X obj 581 248 r timeNow;
#X text 618 267 NOW;
#X text 762 228 BAR;
#X floatatom 805 228 5 0 0 0 - - -;
#X text 842 228 BAR;
#X text 842 228 BAR;
#X obj 805 209 r barTotal;
#X obj 645 134 hradio 14 1 0 16 empty empty empty 0 -8 0 10 -1 -262144
-1 0;
#X obj 581 186 hradio 18 1 0 16 empty empty empty 0 -8 0 10 -1 -128992
-1 0;
#X obj 645 150 hradio 14 1 0 16 empty empty empty 0 -8 0 10 -1 -262144
-1 0;
#X obj 581 167 r barTop;
#X obj 805 117 r barLocal;
#X obj 871 133 r barCount;
#N canvas 442 259 663 490 timer 0;
#X obj 141 227 metro;
#X msg 168 129 60000;
#X obj 168 176 /;
#X obj 141 112 t b b b;
#X obj 141 44 bng 15 250 50 0 empty empty empty 17 7 0 10 -262144 -1
-1;
#X floatatom 240 193 5 0 0 0 - - -;
#X obj 168 193 i;
#X floatatom 240 210 5 0 0 0 - - -;
#X floatatom 240 129 5 0 0 0 - - -;
#X msg 91 210 0;
#X obj 91 262 i;
#X obj 113 262 + 1;
#X floatatom 91 287 5 0 0 0 - - -;
#X text 281 129 BPM;
#X obj 91 44 bng 15 250 50 0 empty empty empty 17 7 0 10 -262144 -1
-1;
#X obj 178 227 s metro;
#X obj 91 314 % 16;
#X obj 91 440 i;
#X obj 113 440 + 1;
#X floatatom 91 460 5 0 0 0 - - -;
#X obj 91 422 bng 15 250 50 0 empty empty empty 17 7 0 10 -262144 -1
-1;
#X obj 91 392 spigot 0;
#X msg 47 423 0;
#X obj 91 498 i;
#X obj 32 394 r start;
#X msg 47 245 0;
#X obj 32 216 r start;
#X obj 91 230 s start;
#X obj 91 365 == 15;
#X floatatom 91 334 5 0 0 0 - - -;
#X obj 141 247 bng 15 250 50 0 empty empty empty 17 7 0 10 -1 -262144
-1;
#X msg 311 112 2048;
#X obj 311 143 /;
#X obj 377 83 /;
#X obj 240 95 r bpm;
#X obj 392 63 r bpm;
#X obj 311 82 bng 15 250 50 0 empty empty empty 17 7 0 10 -262144 -1
-1;
#X obj 311 235 s timeSum;
#X obj 377 103 s timeNow;
#X obj 91 19 r stop;
#X obj 141 19 r play;
#X obj 190 19 r bpm;
#X floatatom 190 68 5 0 0 0 - - -;
#X obj 193 348 s barCount;
#X obj 183 514 s barLocal;
#X obj 91 534 s barTop;
#X obj 182 475 % 16;
#X obj 91 477 / 16;
#X obj 141 262 outlet metronome;
#X obj 192 301 s barTotal;
#X obj 377 43 r barTotal;
#X obj 190 44 bng 15 250 50 0 empty empty empty 17 7 0 10 -262144 -1
-1;
#X connect 0 0 30 0;
#X connect 1 0 2 0;
#X connect 2 0 5 0;
#X connect 2 0 6 0;
#X connect 3 0 0 0;
#X connect 3 1 1 0;
#X connect 3 2 8 0;
#X connect 4 0 3 0;
#X connect 6 0 7 0;
#X connect 6 0 0 1;
#X connect 6 0 15 0;
#X connect 8 0 2 1;
#X connect 8 0 32 1;
#X connect 9 0 0 0;
#X connect 9 0 27 0;
#X connect 10 0 11 0;
#X connect 10 0 12 0;
#X connect 11 0 10 1;
#X connect 12 0 16 0;
#X connect 12 0 49 0;
#X connect 14 0 9 0;
#X connect 16 0 29 0;
#X connect 17 0 18 0;
#X connect 17 0 19 0;
#X connect 18 0 17 1;
#X connect 19 0 46 0;
#X connect 19 0 47 0;
#X connect 20 0 17 0;
#X connect 21 0 20 0;
#X connect 22 0 17 0;
#X connect 23 0 45 0;
#X connect 24 0 22 0;
#X connect 25 0 10 0;
#X connect 26 0 25 0;
#X connect 28 0 21 0;
#X connect 28 0 21 1;
#X connect 29 0 28 0;
#X connect 29 0 43 0;
#X connect 30 0 10 0;
#X connect 30 0 48 0;
#X connect 31 0 32 0;
#X connect 32 0 37 0;
#X connect 33 0 38 0;
#X connect 34 0 8 0;
#X connect 35 0 33 1;
#X connect 36 0 31 0;
#X connect 39 0 14 0;
#X connect 40 0 4 0;
#X connect 41 0 51 0;
#X connect 42 0 36 0;
#X connect 46 0 44 0;
#X connect 47 0 23 0;
#X connect 50 0 33 0;
#X connect 51 0 42 0;
#X restore 805 247 pd timer;
#N canvas 618 329 450 300 engine 0;
#X obj 20 32 r stop;
#X msg 20 122 \; pd dsp 0;
#X obj 90 32 r play;
#X msg 90 122 \; pd dsp 1;
#X msg 23 49 0;
#X msg 93 49 1;
#X obj 93 66 tgl 15 0 empty empty empty 17 7 0 10 -262144 -1 -1 0 1
;
#X text 115 67 state;
#X connect 0 0 1 0;
#X connect 0 0 4 0;
#X connect 2 0 3 0;
#X connect 2 0 5 0;
#X connect 4 0 6 0;
#X connect 5 0 6 0;
#X restore 59 443 pd engine;
#X msg 805 298 140;
#X text 2 479 +;
#X text 72 539 +;
#X text 1243 479 +;
#X text 1183 539 +;
#X text 2 59 +;
#X text 72 -1 +;
#X text 1243 59 +;
#X text 1183 -1 +;
#X text 683 267 SUM;
#X obj 872 209 r stop;
#X obj 872 228 r play;
#X text 644 220;
#X connect 0 0 4 0;
#X connect 1 0 2 0;
#X connect 2 0 0 0;
#X connect 3 0 4 0;
#X connect 4 0 8 0;
#X connect 4 1 5 0;
#X connect 5 0 15 0;
#X connect 6 0 4 0;
#X connect 16 0 10 0;
#X connect 17 0 11 0;
#X connect 18 0 9 0;
#X connect 19 0 12 0;
#X connect 20 0 13 0;
#X connect 21 0 14 0;
#X connect 23 0 22 0;
#X connect 25 0 24 0;
#X connect 27 0 26 0;
#X connect 28 0 29 0;
#X connect 32 0 47 0;
#X connect 33 0 48 0;
#X connect 34 0 49 0;
#X connect 35 0 46 0;
#X connect 36 0 44 0;
#X connect 37 0 45 0;
#X connect 38 0 43 0;
#X connect 39 0 50 0;
#X connect 40 0 51 0;
#X connect 41 0 42 0;
#X connect 42 0 52 0;
#X connect 43 0 53 0;
#X connect 44 0 54 0;
#X connect 45 0 55 0;
#X connect 46 0 56 0;
#X connect 47 0 59 0;
#X connect 48 0 60 0;
#X connect 49 0 61 0;
#X connect 50 0 57 0;
#X connect 51 0 58 0;
#X connect 52 0 62 0;
#X connect 52 0 73 0;
#X connect 53 0 63 0;
#X connect 53 0 73 0;
#X connect 54 0 64 0;
#X connect 54 0 73 0;
#X connect 55 0 65 0;
#X connect 55 0 73 0;
#X connect 56 0 66 0;
#X connect 56 0 73 0;
#X connect 57 0 70 0;
#X connect 57 0 82 0;
#X connect 58 0 71 0;
#X connect 58 0 82 0;
#X connect 59 0 67 0;
#X connect 59 0 82 0;
#X connect 60 0 68 0;
#X connect 60 0 82 0;
#X connect 61 0 69 0;
#X connect 61 0 82 0;
#X connect 62 0 74 0;
#X connect 63 0 74 0;
#X connect 64 0 74 0;
#X connect 65 0 74 0;
#X connect 66 0 74 0;
#X connect 67 0 83 0;
#X connect 68 0 83 0;
#X connect 69 0 83 0;
#X connect 70 0 83 0;
#X connect 71 0 83 0;
#X connect 73 0 72 0;
#X connect 74 0 72 1;
#X connect 75 0 95 0;
#X connect 82 0 81 0;
#X connect 83 0 81 1;
#X connect 84 0 96 0;
#X connect 86 0 117 0;
#X connect 98 0 87 0;
#X connect 99 0 89 0;
#X connect 100 0 93 0;
#X connect 101 0 91 0;
#X connect 102 0 94 0;
#X connect 108 0 105 0;
#X connect 112 0 110 0;
#X connect 113 0 109 0;
#X connect 114 0 111 0;
#X connect 115 0 86 0;
#X connect 117 0 97 0;
#X connect 127 0 1 0;
#X connect 128 0 1 0;
